<svg width="1920" height="141" viewBox="0 0 1920 141" fill="none" xmlns="http://www.w3.org/2000/svg">
<path fill-rule="evenodd" clip-rule="evenodd" d="M0 12.4203L46.4 23.1352C91.2 33.8502 182.4 55.2802 273.6 44.5652C366.4 33.8502 457.6 -9.00969 548.8 1.70529C640 12.4203 731.2 76.7101 822.4 90.9968C913.6 105.283 1006.4 69.5668 1097.6 65.9952C1188.8 62.4235 1280 90.9968 1371.2 83.8534C1462.4 76.7101 1553.6 33.8502 1646.4 19.5636C1737.6 5.27695 1828.8 19.5636 1873.6 26.7069L1920 33.8502V141H1873.6C1828.8 141 1737.6 141 1646.4 141C1553.6 141 1462.4 141 1371.2 141C1280 141 1188.8 141 1097.6 141C1006.4 141 913.6 141 822.4 141C731.2 141 640 141 548.8 141C457.6 141 366.4 141 273.6 141C182.4 141 91.2 141 46.4 141H0V12.4203Z" fill="#3987BB"/>
</svg>
