<svg width="1920" height="129" viewBox="0 0 1920 129" fill="none" xmlns="http://www.w3.org/2000/svg">
<path fill-rule="evenodd" clip-rule="evenodd" d="M0 0.420166L46.4 11.1351C91.2 21.8501 182.4 43.2801 273.6 32.5651C366.4 21.8501 426.8 3.99192 518 14.7069C609.2 25.4219 654.8 30.2133 746 44.4999C837.2 58.7865 876.4 14.7068 1112 53.9951C1253.5 77.5914 1280 61.1384 1371.2 53.9951C1462.4 46.8517 1553.6 21.8501 1646.4 7.56348C1737.6 -6.72315 1828.8 7.56348 1873.6 14.7068L1920 21.8501V129H1873.6C1828.8 129 1737.6 129 1646.4 129C1553.6 129 1462.4 129 1371.2 129C1280 129 1188.8 129 1097.6 129C1006.4 129 913.6 129 822.4 129C731.2 129 640 129 548.8 129C457.6 129 366.4 129 273.6 129C182.4 129 91.2 129 46.4 129H0V0.420166Z" fill="#3987BB"/>
</svg>
